<svg  viewBox="0 0 21 21" fill="none" xmlns="http://www.w3.org/2000/svg" xmlns:xlink="http://www.w3.org/1999/xlink">
	<desc>
			Created with Pixso.
	</desc>
	<defs/>
	<path id="Vector" d="M10 -0.13C4.1 -0.13 -0.65 4.61 -0.65 10.51C-0.65 15.21 2.41 19.21 6.62 20.63C7.16 20.71 7.33 20.4 7.33 20.09C7.33 19.83 7.33 19.16 7.33 18.27C4.36 18.94 3.74 16.85 3.74 16.85C3.25 15.61 2.54 15.3 2.54 15.3C1.57 14.64 2.63 14.64 2.63 14.64C3.7 14.73 4.27 15.75 4.27 15.75C5.21 17.39 6.76 16.9 7.38 16.63C7.47 15.92 7.73 15.48 8.04 15.21C5.69 14.95 3.21 14.02 3.21 9.93C3.21 8.78 3.61 7.81 4.32 7.1C4.23 6.83 3.83 5.76 4.41 4.26C4.41 4.26 5.29 3.99 7.33 5.37C8.18 5.15 9.11 5.01 10 5.01C10.88 5.01 11.81 5.15 12.66 5.37C14.7 3.99 15.59 4.26 15.59 4.26C16.16 5.72 15.81 6.79 15.67 7.1C16.34 7.85 16.78 8.78 16.78 9.93C16.78 14.02 14.3 14.9 11.9 15.17C12.3 15.48 12.61 16.15 12.61 17.12C12.61 18.54 12.61 19.69 12.61 20.05C12.61 20.32 12.79 20.67 13.37 20.58C17.58 19.21 20.64 15.21 20.64 10.51C20.64 4.61 15.9 -0.13 10 -0.13Z" fill="#FFFFFF" fill-opacity="1.000000" fill-rule="evenodd"/>
</svg>
