<svg  viewBox="0 0 23 23" fill="none" xmlns="http://www.w3.org/2000/svg" xmlns:xlink="http://www.w3.org/1999/xlink">
	<desc>
			Created with Pixso.
	</desc>
	<defs/>
	<path id="Vector" d="M10.99 1.87C13.96 1.87 14.31 1.88 15.49 1.94C16.19 1.94 16.89 2.08 17.56 2.32C18.04 2.5 18.47 2.79 18.84 3.15C19.2 3.52 19.48 3.95 19.67 4.43C19.91 5.09 20.04 5.79 20.05 6.5C20.1 7.67 20.12 8.02 20.12 11C20.12 13.97 20.1 14.32 20.05 15.49C20.04 16.2 19.91 16.9 19.67 17.56C19.48 18.04 19.2 18.48 18.84 18.84C18.47 19.2 18.04 19.49 17.56 19.67C16.89 19.92 16.19 20.05 15.49 20.06C14.32 20.11 13.96 20.12 10.99 20.12C8.02 20.12 7.67 20.11 6.49 20.06C5.79 20.05 5.09 19.92 4.43 19.67C3.95 19.49 3.51 19.2 3.15 18.84C2.78 18.48 2.5 18.04 2.31 17.56C2.07 16.9 1.94 16.2 1.93 15.49C1.88 14.32 1.87 13.97 1.87 11C1.87 8.02 1.88 7.67 1.93 6.5C1.94 5.79 2.07 5.09 2.31 4.43C2.5 3.95 2.78 3.52 3.15 3.15C3.51 2.79 3.95 2.5 4.43 2.32C5.09 2.08 5.79 1.94 6.49 1.94C7.67 1.88 8.02 1.87 10.99 1.87ZM10.99 -0.13C7.97 -0.13 7.59 -0.12 6.4 -0.07C5.48 -0.05 4.57 0.13 3.7 0.45C2.96 0.73 2.29 1.17 1.73 1.73C1.16 2.29 0.72 2.96 0.45 3.71C0.12 4.57 -0.05 5.48 -0.07 6.41C-0.13 7.59 -0.14 7.97 -0.14 11C-0.14 14.02 -0.13 14.4 -0.07 15.58C-0.05 16.51 0.12 17.42 0.45 18.29C0.73 19.03 1.16 19.7 1.73 20.26C2.29 20.82 2.96 21.26 3.7 21.54C4.57 21.87 5.48 22.04 6.4 22.06C7.59 22.11 7.97 22.13 10.99 22.13C14.01 22.13 14.39 22.11 15.58 22.06C16.5 22.04 17.42 21.87 18.28 21.54C19.02 21.25 19.69 20.82 20.25 20.26C20.81 19.7 21.25 19.02 21.54 18.29C21.86 17.42 22.04 16.51 22.05 15.58C22.11 14.4 22.12 14.02 22.12 11C22.12 7.97 22.11 7.59 22.05 6.41C22.04 5.48 21.86 4.57 21.54 3.7C21.26 2.96 20.82 2.29 20.25 1.73C19.7 1.17 19.02 0.73 18.28 0.45C17.42 0.13 16.5 -0.05 15.58 -0.07C14.39 -0.12 14.01 -0.13 10.99 -0.13Z" fill="#FFFFFF" fill-opacity="1.000000" fill-rule="nonzero"/>
	<path id="Vector" d="M11 5.28C9.86 5.28 8.76 5.62 7.82 6.24C6.88 6.87 6.15 7.76 5.72 8.81C5.28 9.85 5.17 11 5.39 12.11C5.61 13.22 6.15 14.24 6.95 15.04C7.75 15.83 8.77 16.38 9.88 16.6C10.99 16.82 12.14 16.71 13.18 16.27C14.23 15.84 15.12 15.11 15.75 14.17C16.37 13.23 16.71 12.13 16.71 11C16.71 9.48 16.11 8.03 15.04 6.95C13.96 5.88 12.51 5.28 11 5.28ZM11 14.7C10.26 14.7 9.54 14.49 8.93 14.08C8.32 13.67 7.85 13.09 7.57 12.41C7.29 11.74 7.21 10.99 7.36 10.27C7.5 9.55 7.85 8.89 8.37 8.37C8.89 7.85 9.55 7.5 10.27 7.36C10.99 7.21 11.74 7.29 12.41 7.57C13.09 7.85 13.67 8.33 14.08 8.93C14.49 9.54 14.7 10.26 14.7 11C14.7 11.98 14.31 12.92 13.62 13.62C12.92 14.31 11.98 14.7 11 14.7Z" fill="#FFFFFF" fill-opacity="1.000000" fill-rule="nonzero"/>
	<path id="Vector" d="M18.27 5.05C18.27 5.79 17.67 6.39 16.93 6.39C16.19 6.39 15.6 5.79 15.6 5.05C15.6 4.32 16.19 3.72 16.93 3.72C17.67 3.72 18.27 4.32 18.27 5.05Z" fill="#FFFFFF" fill-opacity="1.000000" fill-rule="evenodd"/>
</svg>
